<svg id="Capa_1" data-name="Capa 1" xmlns="http://www.w3.org/2000/svg" width="1080" height="1080" viewBox="0 0 1080 1080">
  <g>
    <path d="M146.57,648.94V368.83H69.49v95.34H23.3V322.11H326V464.17H279.77V368.83H203V648.94h48.61v46.73H98.76V648.94Z"/>
    <path d="M579.09,564.34H444.51l-28.58,84.6h45.38v46.73H314.15V648.94h45.2l102-284.67H416.2V322.11H607.14v42.16h-46.7L665,648.94h41.79v46.73H560.41V648.94h46.46ZM565,520.57l-49.71-156.3h-5.1l-51.75,156.3Z"/>
    <path d="M758.07,648.94l95.15-140.18L758.38,368.83H710.26V322.11H860.39v46.72H818.22l65.22,95.41,64.76-95.41H905V322.11h143.4v46.72h-46.61L910.32,503.55l99.38,145.39h48.61v46.73H905V648.94h43.25L880,548.25,811.62,648.94h45.27v46.73H708.12V648.94Z"/>
  </g>
</svg>
