<svg id="Capa_1" data-name="Capa 1" xmlns="http://www.w3.org/2000/svg" width="1080" height="320" viewBox="0 0 1080 320">
  <g>
    <polygon points="22.57 187.75 71.31 117.33 227.78 53.54 241.02 74 242.83 41.51 280.74 22.25 378.23 91.46 383.05 120.34 392.68 89.65 419.15 84.24 419.15 112.21 404.11 114.33 430.59 154.65 427.58 168.49 433.6 176.91 465.49 164.88 447.44 192.56 516.65 149.83 458.87 244.92 427.95 244.92 330.09 216.03 316.85 167.89 310.23 229.87 344.53 273.8 296.65 273.8 248.24 238.9 231.39 173.9 233.2 212.42 207.92 226.26 150.75 214.22 139.32 171.5 137.51 214.83 71.92 250.93 82.4 273.8 48.14 273.8 24.38 241.31 50.85 175.11 22.57 187.75"/>
    <polygon points="79.74 252.74 99.6 270.79 97.43 273.8 135.63 273.8 121.27 263.27 122.47 230.47 79.74 252.74"/>
    <polygon points="129.69 228.67 127.88 258.16 139.92 267.18 152.04 267.18 136.91 255.75 138.72 223.85 129.69 228.67" fill="#9b9a87"/>
    <polygon points="290.37 18.64 384.85 86.04 388.1 104.24 392.68 89.65 394.75 89.23 394.75 84.03 297.59 15.63 290.37 18.64" fill="#9b9a87"/>
    <polygon points="467.3 237.09 475.34 237.09 533.13 142.99 519.66 151.03 467.3 237.09" fill="#9b9a87"/>
    <polygon points="471.51 161.87 481.74 158.26 467.3 180.3 454.96 187.92 471.51 161.87" fill="#9b9a87"/>
    <polygon points="440.22 172.1 449.25 169.09 443.23 161.87 447.39 148.03 420.96 108.31 419.15 108.31 419.15 112.21 413.58 112.99 437.81 149.23 434.2 163.67 440.22 172.1" fill="#9b9a87"/>
    <polyline points="321.74 185.65 321.63 186.66 317.45 225.06 349.95 266.58 360.4 266.58 326.48 222.65 327.96 208.3" fill="#9b9a87"/>
    <polygon points="371.61 156.45 379.44 179.92 390.39 179.92 390.39 169.34 371.61 156.45" fill="#f3c12d"/>
    <polygon points="186.56 226.56 213.26 266.58 208.13 273.8 260.3 273.8 240.12 262.07 235.91 217.53 209.75 230.47 186.56 226.56"/>
  </g>
  <g>
    <path d="M617.33,82.89h-5.16v-16h34.32v16h-3.18V105.5q0,8.1,1.54,11t5.55,2.9a5.22,5.22,0,0,0,4.82-2.46c1-1.61,1.49-4.9,1.49-9.89V82.89h-3.37v-16h25.21v16h-5.3v24.3q0,9.3-2.7,15.23a19.54,19.54,0,0,1-9,9.21Q655.31,135,646.15,135a43.64,43.64,0,0,1-13.06-1.79,20.25,20.25,0,0,1-9.16-5.3,21.61,21.61,0,0,1-5-8.53q-1.63-4.87-1.63-15Z"/>
    <path d="M738.86,104.35l17.4,6.12a30.63,30.63,0,0,1-10.17,17.59Q738,135,723.92,135q-19.29,0-28.54-10.08t-9.31-24.49q0-14.55,9.11-24.73t23.67-10.17q11.82,0,19.24,5.83V66.84h16.1V91.33H737.46a14.53,14.53,0,0,0-4.38-7.23,10.61,10.61,0,0,0-7-2.61q-10.9,0-10.9,18.76t11.28,18.8Q736.31,119.05,738.86,104.35Z"/>
    <path d="M828.87,133.9h-64V117.84h5.21V82.89h-5.3v-16h64.07V88.29h-17.6v-5.4H796V93.21h13.25v13.64H796v11h15.23v-5.39h17.6Z"/>
    <path d="M870.71,133.9H839.52V117.84h5.26V82.89h-5.26v-16h32.11a97,97,0,0,1,17.93,1.35,35.12,35.12,0,0,1,13.16,5.54,29.15,29.15,0,0,1,9.64,11.48A33.21,33.21,0,0,1,915,92.63a36.7,36.7,0,0,1,.91,8.29,34.19,34.19,0,0,1-3.71,15.91,28.56,28.56,0,0,1-9.3,11,30.28,30.28,0,0,1-12.06,5Q884.35,133.89,870.71,133.9Zm0-51v35h2.46q9.17,0,11.91-4.86a25,25,0,0,0,2.7-12.25A33.91,33.91,0,0,0,886.62,92a12.33,12.33,0,0,0-4.24-6.7q-3-2.37-10.7-2.37Z"/>
    <path d="M945.58,133.9H919V117.84h5.11l12.58-34.95h-5.4v-16h48.21v16h-5.4l12.82,35h4.92V133.9h-35V119.19h5.88l-2.55-8.43H943l-2.95,8.43h5.5Zm6.32-50-6.32,18.56h12Z"/>
    <path d="M560.51,252.38H545.42v-21.5h15.09q2.7,8.77,10.17,8.77,5.4,0,5.4-4.34a4.6,4.6,0,0,0-1.88-3.76q-2-1.63-8.53-4.53a80.15,80.15,0,0,1-12-6.41,20.81,20.81,0,0,1-6.17-6.8,18.17,18.17,0,0,1-2.56-9.5q0-9.34,6.08-14.61a21.77,21.77,0,0,1,14.84-5.25,22.83,22.83,0,0,1,15,5v-4.14H596v19.09H581q-2.75-7.91-9.74-7.91-4.9,0-4.91,4.2a3.49,3.49,0,0,0,1.39,3,72.81,72.81,0,0,0,8.73,4.68,134.08,134.08,0,0,1,13.21,7.18,18.05,18.05,0,0,1,3.45,3.11,23.16,23.16,0,0,1,2.91,4.12A20.52,20.52,0,0,1,598.64,233a18.71,18.71,0,0,1-6.26,14.27q-6.27,5.94-15.81,5.93A26.56,26.56,0,0,1,560.51,248Z"/>
    <path d="M658.57,252.38H620.92V236.32h5.78V201.37H619v12.2H606.41V185.32h66.48v28.25H660.3v-12.2h-7.66v34.95h5.93Z"/>
    <path d="M684.75,201.37h-5.16V185.32h34.32v16.05h-3.18V224q0,8.1,1.54,11t5.55,2.89a5.24,5.24,0,0,0,4.82-2.45q1.49-2.42,1.49-9.89v-24.2h-3.37V185.32H746v16.05h-5.3v24.3q0,9.3-2.7,15.23a19.59,19.59,0,0,1-9,9.21q-6.27,3.33-15.43,3.33a43.64,43.64,0,0,1-13.06-1.79,20.25,20.25,0,0,1-9.16-5.3,21.54,21.54,0,0,1-5-8.53q-1.65-4.87-1.64-14.95Z"/>
    <path d="M784.92,252.38H753.73V236.32H759V201.37h-5.26V185.32h32.11a96.92,96.92,0,0,1,17.93,1.35,35.12,35.12,0,0,1,13.16,5.54,29.11,29.11,0,0,1,9.65,11.48,33.51,33.51,0,0,1,2.65,7.42,36.7,36.7,0,0,1,.91,8.29,34.07,34.07,0,0,1-3.71,15.91,28.46,28.46,0,0,1-9.3,10.94,30.11,30.11,0,0,1-12,5Q798.57,252.38,784.92,252.38Zm0-51v34.95h2.46q9.17,0,11.91-4.87a25,25,0,0,0,2.7-12.24,34,34,0,0,0-1.16-8.78,12.35,12.35,0,0,0-4.24-6.7q-3-2.35-10.7-2.36Z"/>
    <path d="M876.76,252.38H838.53V236.32h6.17V201.37h-6.17V185.32h38.23v16.05h-6.12v34.95h6.12Z"/>
    <path d="M888.33,201.37h-5.16V185.32H917.5v16.05h-3.18V224q0,8.1,1.54,11t5.54,2.89a5.21,5.21,0,0,0,4.82-2.45q1.5-2.42,1.5-9.89v-24.2h-3.38V185.32h25.22v16.05h-5.31v24.3q0,9.3-2.69,15.23a19.63,19.63,0,0,1-9,9.21q-6.27,3.33-15.43,3.33a43.59,43.59,0,0,1-13.06-1.79,20.25,20.25,0,0,1-9.16-5.3,21.56,21.56,0,0,1-5-8.53q-1.63-4.87-1.64-14.95Z"/>
    <path d="M982.53,252.38h-26V236.32h5.16V201.37H956.4V185.32h40.45l9.88,25.89,10.13-25.89h40.2v16.05h-5.25v34.95h5.4v16.06h-35V236.32h5.35V198.86l-20.25,53.52h-10l-20-53v37h5.3Z"/>
  </g>
</svg>
